<?xml version="1.0" encoding="UTF-8" standalone="no"?>
<!DOCTYPE svg PUBLIC "-//W3C//DTD SVG 1.1//EN"
 "http://www.w3.org/Graphics/SVG/1.1/DTD/svg11.dtd">
<!-- Generated by graphviz version 2.38.0 (20140413.2041)
 -->
<!-- Title: controllers_diagram Pages: 1 -->
<svg width="528pt" height="477pt"
 viewBox="0.00 0.00 528.00 477.00" xmlns="http://www.w3.org/2000/svg" xmlns:xlink="http://www.w3.org/1999/xlink">
<g id="graph0" class="graph" transform="scale(1 1) rotate(0) translate(166 347.5)">
<title>controllers_diagram</title>
<polygon fill="none" stroke="none" points="-166,129.5 -166,-347.5 362,-347.5 362,129.5 -166,129.5"/>
<!-- _diagram_info -->
<g id="node1" class="node"><title>_diagram_info</title>
<text text-anchor="start" x="152" y="-207.6" font-family="Times,serif" font-size="13.00">Controllers diagram</text>
<text text-anchor="start" x="152" y="-193.6" font-family="Times,serif" font-size="13.00">Date: Dec 05 2017 &#45; 16:40</text>
<text text-anchor="start" x="152" y="-179.6" font-family="Times,serif" font-size="13.00">Migration version: 20171121135902</text>
<text text-anchor="start" x="152" y="-165.6" font-family="Times,serif" font-size="13.00">Generated by RailRoady 1.5.3</text>
<text text-anchor="start" x="152" y="-151.6" font-family="Times,serif" font-size="13.00">http://railroady.prestonlee.com</text>
</g>
<!-- BillsController -->
<g id="node2" class="node"><title>BillsController</title>
<path fill="none" stroke="black" d="M30,-145C30,-145 104,-145 104,-145 110,-145 116,-151 116,-157 116,-157 116,-331 116,-331 116,-337 110,-343 104,-343 104,-343 30,-343 30,-343 24,-343 18,-337 18,-331 18,-331 18,-157 18,-157 18,-151 24,-145 30,-145"/>
<text text-anchor="middle" x="67" y="-327.8" font-family="Times,serif" font-size="14.00">BillsController</text>
<polyline fill="none" stroke="black" points="18,-320 116,-320 "/>
<text text-anchor="start" x="26" y="-304.8" font-family="Times,serif" font-size="14.00">create</text>
<text text-anchor="start" x="26" y="-289.8" font-family="Times,serif" font-size="14.00">destroy</text>
<text text-anchor="start" x="26" y="-274.8" font-family="Times,serif" font-size="14.00">index</text>
<text text-anchor="start" x="26" y="-259.8" font-family="Times,serif" font-size="14.00">new</text>
<text text-anchor="start" x="26" y="-244.8" font-family="Times,serif" font-size="14.00">show</text>
<polyline fill="none" stroke="black" points="18,-237 116,-237 "/>
<polyline fill="none" stroke="black" points="18,-213 116,-213 "/>
<text text-anchor="start" x="26" y="-197.8" font-family="Times,serif" font-size="14.00">_layout</text>
<text text-anchor="start" x="26" y="-182.8" font-family="Times,serif" font-size="14.00">bill_params</text>
<text text-anchor="start" x="26" y="-167.8" font-family="Times,serif" font-size="14.00">set_client</text>
<text text-anchor="start" x="26" y="-152.8" font-family="Times,serif" font-size="14.00">set_tariffa</text>
</g>
<!-- ApplicationController -->
<g id="node3" class="node"><title>ApplicationController</title>
<path fill="none" stroke="black" d="M-150,-163C-150,-163 -38,-163 -38,-163 -32,-163 -26,-169 -26,-175 -26,-175 -26,-245 -26,-245 -26,-251 -32,-257 -38,-257 -38,-257 -150,-257 -150,-257 -156,-257 -162,-251 -162,-245 -162,-245 -162,-175 -162,-175 -162,-169 -156,-163 -150,-163"/>
<text text-anchor="middle" x="-94" y="-241.8" font-family="Times,serif" font-size="14.00">ApplicationController</text>
<polyline fill="none" stroke="black" points="-162,-234 -26,-234 "/>
<polyline fill="none" stroke="black" points="-162,-210 -26,-210 "/>
<polyline fill="none" stroke="black" points="-162,-186 -26,-186 "/>
<text text-anchor="start" x="-154" y="-170.8" font-family="Times,serif" font-size="14.00">_layout</text>
</g>
<!-- TariffaOrariaController -->
<g id="node4" class="node"><title>TariffaOrariaController</title>
<path fill="none" stroke="black" d="M-60,125C-60,125 62,125 62,125 68,125 74,119 74,113 74,113 74,-91 74,-91 74,-97 68,-103 62,-103 62,-103 -60,-103 -60,-103 -66,-103 -72,-97 -72,-91 -72,-91 -72,113 -72,113 -72,119 -66,125 -60,125"/>
<text text-anchor="middle" x="1" y="-87.8" font-family="Times,serif" font-size="14.00">TariffaOrariaController</text>
<polyline fill="none" stroke="black" points="-72,-80 74,-80 "/>
<text text-anchor="start" x="-64" y="-64.8" font-family="Times,serif" font-size="14.00">create</text>
<text text-anchor="start" x="-64" y="-49.8" font-family="Times,serif" font-size="14.00">destroy</text>
<text text-anchor="start" x="-64" y="-34.8" font-family="Times,serif" font-size="14.00">edit</text>
<text text-anchor="start" x="-64" y="-19.8" font-family="Times,serif" font-size="14.00">index</text>
<text text-anchor="start" x="-64" y="-4.8" font-family="Times,serif" font-size="14.00">new</text>
<text text-anchor="start" x="-64" y="10.2" font-family="Times,serif" font-size="14.00">show</text>
<text text-anchor="start" x="-64" y="25.2" font-family="Times,serif" font-size="14.00">update</text>
<polyline fill="none" stroke="black" points="-72,33 74,33 "/>
<polyline fill="none" stroke="black" points="-72,57 74,57 "/>
<text text-anchor="start" x="-64" y="72.2" font-family="Times,serif" font-size="14.00">_layout</text>
<text text-anchor="start" x="-64" y="87.2" font-family="Times,serif" font-size="14.00">esatta</text>
<text text-anchor="start" x="-64" y="102.2" font-family="Times,serif" font-size="14.00">set_tariffa_orarium</text>
<text text-anchor="start" x="-64" y="117.2" font-family="Times,serif" font-size="14.00">tariffa_orarium_params</text>
</g>
<!-- ClientsController -->
<g id="node5" class="node"><title>ClientsController</title>
<path fill="none" stroke="black" d="M120,107.5C120,107.5 206,107.5 206,107.5 212,107.5 218,101.5 218,95.5 218,95.5 218,-93.5 218,-93.5 218,-99.5 212,-105.5 206,-105.5 206,-105.5 120,-105.5 120,-105.5 114,-105.5 108,-99.5 108,-93.5 108,-93.5 108,95.5 108,95.5 108,101.5 114,107.5 120,107.5"/>
<text text-anchor="middle" x="163" y="-90.3" font-family="Times,serif" font-size="14.00">ClientsController</text>
<polyline fill="none" stroke="black" points="108,-82.5 218,-82.5 "/>
<text text-anchor="start" x="116" y="-67.3" font-family="Times,serif" font-size="14.00">create</text>
<text text-anchor="start" x="116" y="-52.3" font-family="Times,serif" font-size="14.00">destroy</text>
<text text-anchor="start" x="116" y="-37.3" font-family="Times,serif" font-size="14.00">edit</text>
<text text-anchor="start" x="116" y="-22.3" font-family="Times,serif" font-size="14.00">index</text>
<text text-anchor="start" x="116" y="-7.3" font-family="Times,serif" font-size="14.00">new</text>
<text text-anchor="start" x="116" y="7.7" font-family="Times,serif" font-size="14.00">show</text>
<text text-anchor="start" x="116" y="22.7" font-family="Times,serif" font-size="14.00">update</text>
<polyline fill="none" stroke="black" points="108,30.5 218,30.5 "/>
<polyline fill="none" stroke="black" points="108,54.5 218,54.5 "/>
<text text-anchor="start" x="116" y="69.7" font-family="Times,serif" font-size="14.00">_layout</text>
<text text-anchor="start" x="116" y="84.7" font-family="Times,serif" font-size="14.00">client_params</text>
<text text-anchor="start" x="116" y="99.7" font-family="Times,serif" font-size="14.00">set_client</text>
</g>
</g>
</svg>
