<?xml version="1.0" encoding="UTF-8" standalone="no"?>
<!DOCTYPE svg PUBLIC "-//W3C//DTD SVG 1.1//EN"
 "http://www.w3.org/Graphics/SVG/1.1/DTD/svg11.dtd">
<!-- Generated by graphviz version 2.38.0 (20140413.2041)
 -->
<!-- Title: models_diagram Pages: 1 -->
<svg width="704pt" height="348pt"
 viewBox="0.00 0.00 704.00 348.00" xmlns="http://www.w3.org/2000/svg" xmlns:xlink="http://www.w3.org/1999/xlink">
<g id="graph0" class="graph" transform="scale(1 1) rotate(0) translate(4 344)">
<title>models_diagram</title>
<polygon fill="none" stroke="none" points="-4,4 -4,-344 700,-344 700,4 -4,4"/>
<!-- _diagram_info -->
<g id="node1" class="node"><title>_diagram_info</title>
<text text-anchor="start" x="8" y="-281.1" font-family="Times,serif" font-size="13.00">Models diagram</text>
<text text-anchor="start" x="8" y="-267.1" font-family="Times,serif" font-size="13.00">Date: Dec 05 2017 &#45; 16:40</text>
<text text-anchor="start" x="8" y="-253.1" font-family="Times,serif" font-size="13.00">Migration version: 20171121135902</text>
<text text-anchor="start" x="8" y="-239.1" font-family="Times,serif" font-size="13.00">Generated by RailRoady 1.5.3</text>
<text text-anchor="start" x="8" y="-225.1" font-family="Times,serif" font-size="13.00">http://railroady.prestonlee.com</text>
</g>
<!-- ApplicationRecord -->
<g id="node2" class="node"><title>ApplicationRecord</title>
<ellipse fill="none" stroke="black" cx="309" cy="-256.5" rx="77.1866" ry="18"/>
<text text-anchor="middle" x="309" y="-252.8" font-family="Times,serif" font-size="14.00">ApplicationRecord</text>
</g>
<!-- TariffaOrarium -->
<g id="node3" class="node"><title>TariffaOrarium</title>
<path fill="none" stroke="black" d="M416.5,-211C416.5,-211 523.5,-211 523.5,-211 529.5,-211 535.5,-217 535.5,-223 535.5,-223 535.5,-290 535.5,-290 535.5,-296 529.5,-302 523.5,-302 523.5,-302 416.5,-302 416.5,-302 410.5,-302 404.5,-296 404.5,-290 404.5,-290 404.5,-223 404.5,-223 404.5,-217 410.5,-211 416.5,-211"/>
<text text-anchor="middle" x="470" y="-286.8" font-family="Times,serif" font-size="14.00">TariffaOrarium</text>
<polyline fill="none" stroke="black" points="404.5,-279 535.5,-279 "/>
<text text-anchor="start" x="412.5" y="-263.8" font-family="Times,serif" font-size="14.00">id :INTEGER</text>
<text text-anchor="start" x="412.5" y="-248.8" font-family="Times,serif" font-size="14.00">tariffa :integer</text>
<text text-anchor="start" x="412.5" y="-233.8" font-family="Times,serif" font-size="14.00">created_at :datetime</text>
<text text-anchor="start" x="412.5" y="-218.8" font-family="Times,serif" font-size="14.00">updated_at :datetime</text>
</g>
<!-- Client -->
<g id="node4" class="node"><title>Client</title>
<path fill="none" stroke="black" d="M566,-173.5C566,-173.5 684,-173.5 684,-173.5 690,-173.5 696,-179.5 696,-185.5 696,-185.5 696,-327.5 696,-327.5 696,-333.5 690,-339.5 684,-339.5 684,-339.5 566,-339.5 566,-339.5 560,-339.5 554,-333.5 554,-327.5 554,-327.5 554,-185.5 554,-185.5 554,-179.5 560,-173.5 566,-173.5"/>
<text text-anchor="middle" x="625" y="-324.3" font-family="Times,serif" font-size="14.00">Client</text>
<polyline fill="none" stroke="black" points="554,-316.5 696,-316.5 "/>
<text text-anchor="start" x="562" y="-301.3" font-family="Times,serif" font-size="14.00">id :INTEGER</text>
<text text-anchor="start" x="562" y="-286.3" font-family="Times,serif" font-size="14.00">nome :varchar</text>
<text text-anchor="start" x="562" y="-271.3" font-family="Times,serif" font-size="14.00">cognome :varchar</text>
<text text-anchor="start" x="562" y="-256.3" font-family="Times,serif" font-size="14.00">telefono :varchar</text>
<text text-anchor="start" x="562" y="-241.3" font-family="Times,serif" font-size="14.00">indirizzo :varchar</text>
<text text-anchor="start" x="562" y="-226.3" font-family="Times,serif" font-size="14.00">ore_totali :integer</text>
<text text-anchor="start" x="562" y="-211.3" font-family="Times,serif" font-size="14.00">ultima_fattura :varchar</text>
<text text-anchor="start" x="562" y="-196.3" font-family="Times,serif" font-size="14.00">created_at :datetime</text>
<text text-anchor="start" x="562" y="-181.3" font-family="Times,serif" font-size="14.00">updated_at :datetime</text>
</g>
<!-- Bill -->
<g id="node5" class="node"><title>Bill</title>
<path fill="none" stroke="black" d="M571.5,-0.5C571.5,-0.5 678.5,-0.5 678.5,-0.5 684.5,-0.5 690.5,-6.5 690.5,-12.5 690.5,-12.5 690.5,-124.5 690.5,-124.5 690.5,-130.5 684.5,-136.5 678.5,-136.5 678.5,-136.5 571.5,-136.5 571.5,-136.5 565.5,-136.5 559.5,-130.5 559.5,-124.5 559.5,-124.5 559.5,-12.5 559.5,-12.5 559.5,-6.5 565.5,-0.5 571.5,-0.5"/>
<text text-anchor="middle" x="625" y="-121.3" font-family="Times,serif" font-size="14.00">Bill</text>
<polyline fill="none" stroke="black" points="559.5,-113.5 690.5,-113.5 "/>
<text text-anchor="start" x="567.5" y="-98.3" font-family="Times,serif" font-size="14.00">id :INTEGER</text>
<text text-anchor="start" x="567.5" y="-83.3" font-family="Times,serif" font-size="14.00">voce :varchar</text>
<text text-anchor="start" x="567.5" y="-68.3" font-family="Times,serif" font-size="14.00">ore_eff :integer</text>
<text text-anchor="start" x="567.5" y="-53.3" font-family="Times,serif" font-size="14.00">client_id :integer</text>
<text text-anchor="start" x="567.5" y="-38.3" font-family="Times,serif" font-size="14.00">created_at :datetime</text>
<text text-anchor="start" x="567.5" y="-23.3" font-family="Times,serif" font-size="14.00">updated_at :datetime</text>
<text text-anchor="start" x="567.5" y="-8.3" font-family="Times,serif" font-size="14.00">tariffa :integer</text>
</g>
<!-- Client&#45;&gt;Bill -->
<g id="edge1" class="edge"><title>Client&#45;&gt;Bill</title>
<path fill="none" stroke="#5d226a" d="M625,-165.302C625,-159.129 625,-152.941 625,-146.844"/>
<ellipse fill="none" stroke="#5d226a" cx="625" cy="-169.376" rx="4" ry="4"/>
<polygon fill="#5d226a" stroke="#5d226a" points="625,-146.691 629.5,-136.691 625,-141.691 625,-136.691 625,-136.691 625,-136.691 625,-141.691 620.5,-136.691 625,-146.691 625,-146.691"/>
</g>
</g>
</svg>
