<?xml version="1.0" encoding="UTF-8" standalone="no"?>
<!DOCTYPE svg PUBLIC "-//W3C//DTD SVG 1.1//EN"
 "http://www.w3.org/Graphics/SVG/1.1/DTD/svg11.dtd">
<!-- Generated by graphviz version 2.38.0 (20140413.2041)
 -->
<!-- Title: models_diagram Pages: 1 -->
<svg width="626pt" height="158pt"
 viewBox="0.00 0.00 626.50 158.00" xmlns="http://www.w3.org/2000/svg" xmlns:xlink="http://www.w3.org/1999/xlink">
<g id="graph0" class="graph" transform="scale(1 1) rotate(0) translate(4 154)">
<title>models_diagram</title>
<polygon fill="none" stroke="none" points="-4,4 -4,-154 622.497,-154 622.497,4 -4,4"/>
<!-- _diagram_info -->
<g id="node1" class="node"><title>_diagram_info</title>
<text text-anchor="start" x="8" y="-135.6" font-family="Times,serif" font-size="13.00">Models diagram</text>
<text text-anchor="start" x="8" y="-121.6" font-family="Times,serif" font-size="13.00">Date: Dec 05 2017 &#45; 16:40</text>
<text text-anchor="start" x="8" y="-107.6" font-family="Times,serif" font-size="13.00">Migration version: 20171121135902</text>
<text text-anchor="start" x="8" y="-93.6" font-family="Times,serif" font-size="13.00">Generated by RailRoady 1.5.3</text>
<text text-anchor="start" x="8" y="-79.6" font-family="Times,serif" font-size="13.00">http://railroady.prestonlee.com</text>
</g>
<!-- ApplicationRecord -->
<g id="node2" class="node"><title>ApplicationRecord</title>
<ellipse fill="none" stroke="black" cx="309" cy="-111" rx="77.1866" ry="18"/>
<text text-anchor="middle" x="309" y="-107.3" font-family="Times,serif" font-size="14.00">ApplicationRecord</text>
</g>
<!-- TariffaOrarium -->
<g id="node3" class="node"><title>TariffaOrarium</title>
<ellipse fill="none" stroke="black" cx="470" cy="-111" rx="65.7887" ry="18"/>
<text text-anchor="middle" x="470" y="-107.3" font-family="Times,serif" font-size="14.00">TariffaOrarium</text>
</g>
<!-- Client -->
<g id="node4" class="node"><title>Client</title>
<ellipse fill="none" stroke="black" cx="586" cy="-111" rx="32.4942" ry="18"/>
<text text-anchor="middle" x="586" y="-107.3" font-family="Times,serif" font-size="14.00">Client</text>
</g>
<!-- Bill -->
<g id="node5" class="node"><title>Bill</title>
<ellipse fill="none" stroke="black" cx="586" cy="-18" rx="27" ry="18"/>
<text text-anchor="middle" x="586" y="-14.3" font-family="Times,serif" font-size="14.00">Bill</text>
</g>
<!-- Client&#45;&gt;Bill -->
<g id="edge1" class="edge"><title>Client&#45;&gt;Bill</title>
<path fill="none" stroke="#00308f" d="M586,-84.7285C586,-72.7246 586,-58.3622 586,-46.1291"/>
<ellipse fill="none" stroke="#00308f" cx="586" cy="-88.8836" rx="4" ry="4"/>
<polygon fill="#00308f" stroke="#00308f" points="586,-46.0397 590.5,-36.0396 586,-41.0397 586,-36.0397 586,-36.0397 586,-36.0397 586,-41.0397 581.5,-36.0397 586,-46.0397 586,-46.0397"/>
</g>
</g>
</svg>
